<?xml version="1.0"?>
<svg xmlns="http://www.w3.org/2000/svg" viewBox="0 0 50 50">
    <path style="text-indent:0;text-align:start;line-height:normal;text-transform:none;block-progression:tb;-inkscape-font-specification:Bitstream Vera Sans" d="M 9.875 3 A 1.0001 1.0001 0 0 0 9.03125 3.71875 C 9.03125 3.71875 8.4052715 5.8670385 8.15625 8.625 C 7.9270082 11.163898 8.0339997 14.24081 9.375 16.84375 C 6.8260163 19.678694 5.1875 22 5.1875 22 A 1.0001 1.0001 0 0 0 6.0625 23.53125 L 6.84375 23.5 C 6.3245992 24.469776 5.7612115 25.37589 5.375 26.5625 A 1.0001 1.0001 0 0 0 6.4375 27.875 L 8.59375 27.65625 C 8.150104 28.490616 7.6608864 29.45459 7.59375 30.5 A 1.0001 1.0001 0 0 0 8.78125 31.5625 C 8.6642694 31.5844 8.87844 31.54625 9.125 31.5625 C 9.3715604 31.57875 9.7098076 31.59849 10.09375 31.65625 C 10.861635 31.771768 11.838551 31.981702 12.78125 32.28125 C 13.723949 32.580798 14.627415 32.976795 15.28125 33.4375 C 15.935085 33.898205 16.29156 34.373989 16.375 34.84375 C 16.941963 38.039633 17.401934 41.237052 18.09375 43.3125 C 18.538406 44.646469 19.67262 45.544873 20.9375 46.125 C 22.20238 46.705127 23.645413 47 25 47 C 26.354587 47 27.801639 46.705634 29.0625 46.125 C 30.323361 45.544366 31.462493 44.643771 31.90625 43.3125 C 32.598099 41.236952 33.058051 38.038558 33.625 34.84375 C 33.70828 34.374108 34.064992 33.898178 34.71875 33.4375 C 35.372508 32.976822 36.275991 32.580798 37.21875 32.28125 C 38.161509 31.981702 39.138283 31.771769 39.90625 31.65625 C 40.290233 31.59849 40.628411 31.57875 40.875 31.5625 C 41.121589 31.54625 41.335748 31.5844 41.21875 31.5625 A 1.0001 1.0001 0 0 0 42.40625 30.5 C 42.33911 29.45459 41.849896 28.490616 41.40625 27.65625 L 43.5625 27.875 A 1.0001 1.0001 0 0 0 44.625 26.59375 C 44.352775 25.604339 43.835764 24.431905 43.34375 23.5 L 43.9375 23.53125 A 1.0001 1.0001 0 0 0 44.8125 22 C 44.8125 22 43.173984 19.678694 40.625 16.84375 C 41.966057 14.241188 42.072992 11.163785 41.84375 8.625 C 41.594728 5.8671608 40.96875 3.71875 40.96875 3.71875 A 1.0001 1.0001 0 0 0 39.46875 3.15625 L 31.90625 8.03125 C 31.305054 7.8564204 28.296424 7 25 7 C 21.703576 7 18.697522 7.8564805 18.09375 8.03125 L 10.53125 3.15625 A 1.0001 1.0001 0 0 0 9.875 3 z M 10.5 6.59375 C 11.502435 8.0388569 12.872603 10.224619 13.71875 12.53125 C 12.353105 13.847008 11.512057 14.686289 10.84375 15.34375 C 10.058872 13.374294 9.9652076 10.897083 10.15625 8.78125 C 10.25285 7.7113856 10.381019 7.1032071 10.5 6.59375 z M 39.5 6.59375 C 39.618981 7.1032248 39.74715 7.7114393 39.84375 8.78125 C 40.034792 10.896976 39.941103 13.374457 39.15625 15.34375 C 38.487943 14.686289 37.646895 13.847008 36.28125 12.53125 C 37.127397 10.224619 38.497565 8.0388569 39.5 6.59375 z M 13.5 7.4375 L 17.40625 9.9375 A 1.0001 1.0001 0 0 0 18.21875 10.0625 C 18.21875 10.0625 21.786298 9 25 9 C 28.213702 9 31.78125 10.0625 31.78125 10.0625 A 1.0001 1.0001 0 0 0 32.59375 9.9375 L 36.5 7.4375 C 35.618898 8.8838266 34.70307 10.612007 34.125 12.40625 A 1.0001 1.0001 0 0 0 34.375 13.4375 C 36.411711 15.373964 38.75 17.71875 38.75 17.71875 A 1.0001 1.0001 0 0 0 38.8125 17.78125 C 38.824304 17.793917 38.832058 17.799936 38.84375 17.8125 A 1.0001 1.0001 0 0 0 38.875 17.875 C 40.797566 19.945077 41.220542 20.613709 41.8125 21.4375 L 41.59375 21.4375 A 1.0001 1.0001 0 0 0 40.6875 22.9375 C 40.6875 22.9375 41.440727 24.462262 42.03125 25.6875 L 40.125 25.5 C 39.812287 25.0532 39.122667 24.125409 37.96875 23 C 36.487948 21.555781 34.43398 20 32 20 C 28.659714 20 26.556737 22.068379 25.4375 24 C 25.276993 24.277009 25.128985 24.541875 25 24.8125 C 24.873954 24.545572 24.751082 24.273213 24.59375 24 C 23.480033 22.065984 21.361949 20 18 20 C 15.56602 20 13.512052 21.555781 12.03125 23 C 10.877333 24.125409 10.187713 25.0532 9.875 25.5 L 8 25.6875 C 8.5906065 24.4614 9.3125 22.9375 9.3125 22.9375 A 1.0001 1.0001 0 0 0 8.40625 21.4375 L 8.1875 21.4375 C 8.7742188 20.621 9.1838232 19.933141 11.0625 17.90625 A 1.0001 1.0001 0 0 0 11.125 17.875 C 11.136523 17.862593 11.144616 17.85626 11.15625 17.84375 A 1.0001 1.0001 0 0 0 11.25 17.71875 C 11.25 17.71875 11.280689 17.688063 11.28125 17.6875 A 1.0001 1.0001 0 0 0 11.34375 17.625 C 11.490049 17.478406 13.655425 15.310132 15.625 13.4375 A 1.0001 1.0001 0 0 0 15.875 12.40625 C 15.29693 10.612007 14.381102 8.8838266 13.5 7.4375 z M 18 22 C 20.576051 22 21.973217 23.434016 22.875 25 C 23.776783 26.565984 24 28.15625 24 28.15625 A 1.0121334 1.0121334 0 0 0 24.125 28.53125 A 1.0121334 1.0121334 0 0 0 24.1875 28.625 A 1.0121334 1.0121334 0 0 0 24.5 28.875 A 1.0121334 1.0121334 0 0 0 24.6875 28.96875 A 1.0121334 1.0121334 0 0 0 25.0625 29 A 1.0121334 1.0121334 0 0 0 25.09375 29 A 1.0121334 1.0121334 0 0 0 25.1875 29 A 1.0121334 1.0121334 0 0 0 25.375 28.9375 A 1.0121334 1.0121334 0 0 0 25.46875 28.90625 A 1.0121334 1.0121334 0 0 0 25.5625 28.84375 A 1.0121334 1.0121334 0 0 0 25.84375 28.5625 A 1.0121334 1.0121334 0 0 0 25.90625 28.46875 A 1.0121334 1.0121334 0 0 0 25.9375 28.4375 A 1.0121334 1.0121334 0 0 0 25.9375 28.40625 A 1.0121334 1.0121334 0 0 0 25.9375 28.375 A 1.0121334 1.0121334 0 0 0 25.96875 28.28125 A 1.0121334 1.0121334 0 0 0 26 28.15625 A 1.0121334 1.0121334 0 0 0 26 28.09375 C 26.014477 28.004443 26.274215 26.52225 27.15625 25 C 28.065013 23.431621 29.452286 22 32 22 C 33.51402 22 35.250302 23.157719 36.5625 24.4375 C 37.874698 25.717281 38.71875 27 38.71875 27 A 1.0001 1.0001 0 0 0 38.75 27.03125 A 1.0054782 1.0054782 0 0 0 38.84375 27.15625 C 38.94724 27.310997 39.215901 27.737748 39.5625 28.375 C 39.800461 28.812511 39.871756 29.207881 40.03125 29.65625 C 39.889605 29.67374 39.780173 29.66415 39.625 29.6875 C 38.762342 29.817262 37.693741 30.035423 36.625 30.375 C 35.556259 30.714577 34.473367 31.170647 33.5625 31.8125 C 32.651633 32.454353 31.862975 33.334142 31.65625 34.5 C 31.083199 37.729192 30.574151 40.965048 30 42.6875 C 29.810757 43.255229 29.173389 43.872884 28.21875 44.3125 C 27.264111 44.752116 26.052413 45 25 45 C 23.947587 45 22.74087 44.752623 21.78125 44.3125 C 20.82163 43.872377 20.188344 43.252531 20 42.6875 C 19.425816 40.964948 18.916787 37.730117 18.34375 34.5 C 18.13669 33.334261 17.348384 32.454326 16.4375 31.8125 C 15.526616 31.170674 14.443676 30.714577 13.375 30.375 C 12.306324 30.035423 11.237584 29.817264 10.375 29.6875 C 10.21984 29.66416 10.110383 29.67374 9.96875 29.65625 C 10.128244 29.207881 10.199539 28.812511 10.4375 28.375 C 10.763948 27.774798 11.003494 27.370626 11.125 27.1875 A 1.0054782 1.0054782 0 0 0 11.25 27.03125 A 1.0001 1.0001 0 0 0 11.28125 27 C 11.28125 27 11.310537 26.940455 11.3125 26.9375 C 11.367886 26.854138 12.170223 25.67347 13.4375 24.4375 C 14.749698 23.157719 16.48598 22 18 22 z M 18 27 C 18 27 19.21125 30.17725 21.15625 31.90625 C 21.15625 31.90625 21.898 28.93875 21.25 28.21875 C 20.602 27.49775 18 27 18 27 z M 32 27 C 32 27 29.398 27.49775 28.75 28.21875 C 28.102 28.93875 28.84375 31.90625 28.84375 31.90625 C 30.78875 30.17725 32 27 32 27 z M 25 40 C 22.451 40 21 41 21 41 C 21 41 21.824 44 25 44 C 28.176 44 29 41 29 41 C 29 41 27.549 40 25 40 z" overflow="visible" font-family="Bitstream Vera Sans"/>
</svg>
